<svg xmlns="http://www.w3.org/2000/svg" viewBox="0 0 512.27 118.35"><defs><style>.cls-1{fill:#fff;}</style></defs><title>Asset 2</title><g id="Layer_2" data-name="Layer 2"><g id="Layer_1-2" data-name="Layer 1"><path class="cls-1" d="M512.17,45.22c-.31-2.12-5.81-2.74-5.81-2.74s5.56,15.9-15,19.71c0-.31,0-.62,0-.93-.67-17.72,6-35.71,6-35.71-.27-7.32-8.77-7.24-8.77-7.24s-2.76,6.09-4.29,18.75c-2.84,6.37-6.53,10.19-7.9,9.76-2-.64,3.62-21.55,3.62-21.55-1.06-6.65-9.37-4.49-9.37-4.49l.05,1.36a15.55,15.55,0,0,1-.57,6.16c-.51,2.15-.94,4.27-1.28,6.32A14.79,14.79,0,0,1,465.29,42l0,0c-2.87,3.23-7.75,10.64-12,12.18-5.58,2-4.49-7.69-3.57-11.06.07-.24.15-.48.22-.73,5,1.59,9.68-.42,12.31-6.08,3-6.49-.28-14.19-8-14.37-9.05-.2-11.46,15.72-12,22.39-.08,1-.14,2-.15,3.16-.55,1.51-3.76,9.18-6,8.68-1.45-.32.29-7.89.46-9.45.55-4.89,3.06-16.91-1.34-20.82-6.06-5.39-14.11,9.41-17.87,17.34.35-3.52.76-7.75.86-9.6.18-3.43-5.43-7.63-10.11-7.25.18,2.21-.21,6.75-.48,11.89A32.79,32.79,0,0,1,402.69,54c-1.28,2-2.53,3.5-3.43,3.35-2.76-.47,3.5-14.86,3.16-21s-11-2.56-12.67-2.38a5.73,5.73,0,0,1-1.89-.17c2-14.29,3.81-17.4-5.16-17.06-6.51.24-6.55,11.45-5.26,15.18.49,1.43,3.18,2.81,6.31,4-2.36,6.22-9.91,25.65-11.88,25.48-2.34-.2,2.26-24.82,2.26-24.82.18-7.62-7.05-6.46-7.05-6.46-.64,4.94-8.92,32.09-13.7,32.27-3.49.13,3.41-15.11,4.29-23s-7.27-9.08-7.84-8a3.2,3.2,0,0,0-.2,1v0a11.67,11.67,0,0,1-2.17,5.89,79.21,79.21,0,0,1-7,8.81c-1.19-9.73-7-17.54-17.08-12.9a5.94,5.94,0,0,0-2.95,3.47,4.59,4.59,0,0,0-3.24,2,18.24,18.24,0,0,1-7.47,5.4c-1.76.72-3.53,1.42-5.3,2.13,0-.7.07-1.4.1-2.1.29-6.81,6.21-48.71-8.23-44.93C282.72,3.81,276,43.54,277.95,48.86S282.71,51,282.71,51c0-28.89,12.72-42.11,12.72-42.11l-1,40.1c0,.87-.06,1.74-.1,2.61q-1.6.78-3.16,1.63c-8.47,4.63-17.48,9.1-24.48,15.88-9.43,9.15-16.92,25.41-11.27,38.44,7.08,16.32,29.55,12.4,37.79-.64,5.37-8.51,7-19.89,8.48-29.66,1.33-8.62,2.07-17.32,2.54-26,3.35-1.76,6.7-3.52,10.06-5.32a36.55,36.55,0,0,0-1.14,5.16c-1,7.53,1.73,20.5,11.13,21.18,10.71.77,16-9.82,16.4-20.21a36.58,36.58,0,0,0,6.06-6,10.17,10.17,0,0,0,1-1.82c-3,13.37-7.09,24.71,3.39,24.31,4.31-.16,9.16-8.39,12-13.93-.56,5.09.06,12.14,7.89,11.85,6.8-.26,13.89-22.26,16-29.52,1.89.58,3.73,1.06,5.15,1.41-3,6-3.3,26.15,3.8,25.89,3.74-.14,8.49-8.42,11.41-14.34.36,6.87,1.84,12.52,6.14,12.65,3.28.1,3-1.26,3.36-3.85a43.5,43.5,0,0,1,4-12.3,85.12,85.12,0,0,1,6.23-10.84c-1.06,7.93-.66,20.51,3.79,25,4.05,4.11,9.12-4.47,11.36-8.93.46,2.74,1.57,5.25,4,6.57,5.28,2.85,11.12-2.17,14.59-5.66a70.29,70.29,0,0,0,6.94-8.25c0,7.6,2,12.77,6.75,12.59,3.57-.13,6.6-5.53,8.88-11.6-.27,4.65-.35,9.92-.13,15.83,0,.61,0,1.19,0,1.78-28.5,1.21-31.94,10.93-33.14,15.79s-3.43,23.43,16.92,22.67c18.13-.68,23.46-14.08,24.12-36.49C513.5,64,512.48,47.32,512.17,45.22ZM455.94,28.84a.45.45,0,0,1,.82.06,10.24,10.24,0,0,1-.39,7.8,4.8,4.8,0,0,1-5.49,2.92A84.07,84.07,0,0,1,455.94,28.84ZM289.71,88c-2.29,10.38-3.8,25.8-17.37,26.52-12.06.64-16.41-13-14-22.8,3.17-12.89,14-22.43,25-28.9,3.6-2.12,7.2-4.14,10.8-6.1A204.29,204.29,0,0,1,289.71,88Zm34.64-21.55c-5-3.55-3.13-8.75-1-13.88a10.8,10.8,0,0,0,8.09,3.16,13.53,13.53,0,0,0,4.31-.84C334,62.68,330.19,70.63,324.35,66.45Zm12.09-16C333.67,52,330.84,52,328.23,49c-6.66-7.85,5-16.72,8.16-5.11A20.48,20.48,0,0,1,336.44,50.46ZM384.91,32.6c-.33-.18-.65-.38-.95-.58-1.76-1.19.72-8.15,2.32-8.21C387.49,23.77,385.8,29.71,384.91,32.6Zm85.68,65s-15.06,5.06-15.69-11.71c-.53-14.2,11.31-18.78,28.57-20.36C483.1,91.1,470.59,97.64,470.59,97.64Z"/><path class="cls-1" d="M11.82,95.21c6.26.29,9.29-2.91,12.34-8.11,4-6.76,6.89-14.17,9.73-21.46l.23-.61c2.86-.65,6.19-1.51,9.36-2.31,1.3,19.71,7.45,30.05,9.11,31.16s3.17,1.57,4.85-.66-2.79-16.87-3.86-27.31c-.16-1.53-.27-3.35-.34-5.33a8.47,8.47,0,0,1,1.32-.08,38.41,38.41,0,0,1,6.6.85.89.89,0,0,0,.91-1.41c-.76-1-3-3-8.93-3.54-.13-10.55.46-23.22.51-24.35a1,1,0,0,0,0-.17c-.14-1.12-1.71-13.13-6.14-14.12a1,1,0,0,0-1,.41l-1.77,2.56a1,1,0,0,0-.17.45,271.38,271.38,0,0,0-1.32,35.57c-1.57.21-3.25.48-5.08.84l-1.37.27c2-5.52,3.81-11.09,5.62-16.68a.79.79,0,0,0-1.48-.55c-2.53,6-5.16,12.06-8,18l-8.74,1.73a.2.2,0,0,0-.16.23c.14.82.78,4,2.71,5.27a4.91,4.91,0,0,0,2.59.08q-2.17,4.25-4.52,8.4c-2.51,4.42-5.31,10-9.39,13.25C9.38,92.4,9,80.07,9,76.2c.11-11.58,6.78-10,6.78-10a1.58,1.58,0,0,0,1.72,1.35c1.6,0,3.05-.22,3.56-4.15.65-5-5.69-8-9.83-6.82a14.9,14.9,0,0,0-9.45,9.3C-1.6,74.93-1.22,94.6,11.82,95.21Z"/><path class="cls-1" d="M94.18,49.78c-.88,10.87,5.16,17.94,12.68,17.94,4.9,0,10.36-5.75,14.31-11-.44,5.75-.72,11.52-1.17,17.28-8.79,4.92-16.9,8.25-18.34,9-19.56,9.78,14,33.21,24,11,2.64-5.86,3.27-12.36,3.35-18.78l.1-.07,10.58-8.94C137,82,140.74,84.87,145,84.73c10.84-.35,18.32-23.09,20.83-32h.06l.17-.38a22.19,22.19,0,0,0,5,1c-1.87,8.62-5.69,30.26,3.08,29.69,6.58-.42,10.49-7.76,12.57-13.55.82,7.37,3.67,12,9.78,11.88,9.73-.17,11.08-14.52,11.08-14.52l-.27-1.21a1.25,1.25,0,0,0-2.11-.6h0s-3.62,10.35-9.23,11.61,5.2-47.14,4.75-50.42-3.42-6.29-8.29-5.19l-1.53,10.77c-1.1,5.31-2.38,43.21-13.55,43.93-4.79.31,3-20,2.91-22.06A18.74,18.74,0,0,0,179,49.1a1,1,0,0,0-.8-.62,57,57,0,0,1-9-1.61c-.35-.1-.67-.2-1-.31,1.58-5.41,2.15-11.77-2.45-14.43a6.76,6.76,0,0,0-9.78,4c-2.13,7,1.57,12.1,6.92,14.91l-.23,1.26c-5,15.39-12.22,25.31-14.72,24.94-2.71-.41,1.89-11,2.56-21.6s-8.11-7.38-8.11-7.38l0,.57v.08a21.61,21.61,0,0,1-7.59,15.18,72.37,72.37,0,0,1-5.81,4.42v-.37a86.17,86.17,0,0,1,3.82-26.58c.67-8-8.9-4.74-8.9-4.74-.43,2-.8,3.94-1.11,5.91a23,23,0,0,1-6.36,12.67c-4.12,4.13-8.88,8-10.75,6.28-2.6-2.45-2.12-6.64-.67-13.08,12.52-5.43,25.38-23.9,25.38-29.37,0-6.44-9.57-10.67-15.69-7.8S99.8,28.79,95.44,43.26a33.57,33.57,0,0,0-.82,3.35l-.32.06c-3.16.55-3.43-1.89-3.51-6.11-.06-3.17-.25-4.33-1.13-4.7a1.52,1.52,0,0,0-1.64.38l-1.1,1.13a1.39,1.39,0,0,0-.37.72l-.45,2.46S84.68,48.07,94.18,49.78ZM164.92,40a43.07,43.07,0,0,1,0,4.57c-1.26-1.34-1.82-3.22-2.21-6C161.91,33.23,164.75,36.2,164.92,40Zm-46.27,46.2c-.84,5.58-.69,9.49-6.22,11.56-4.31,1.61-12.67.43-12.17-5.62s10.23-8.77,19.18-12.24C119.23,82,119,84.12,118.65,86.21ZM106.86,40.42c2.59-11.26,13.88-23.19,14.79-23.24s5-.84-.43,11.16C118.44,34.49,112.27,39,106.49,42Z"/><path class="cls-1" d="M146.27,37.75s3.43-2.9,3.2-6.79-8-3-8-3-2.31-.41-1.63,4.86S146.27,37.75,146.27,37.75Z"/><path class="cls-1" d="M207.17,30a1,1,0,0,0,.23,1.23,3.74,3.74,0,0,0,3.44.45c3.11-.79,8-5.84,8.2-9.66.16-3.08-4.25-4.33-6.9-4.52a1,1,0,0,0-1,1.26,5,5,0,0,1,.15,2.4C210.88,23,208.12,28.25,207.17,30Z"/><path class="cls-1" d="M208.29,77.2c0,1.6,1.82,3.41,3.71,2.39,4.27-2.3,11.35-8.93,11.86-9.44l1-1a16.38,16.38,0,0,0,1.68,5.33c4.36,7.6,19.19,5.07,20.33-3.51a20.9,20.9,0,0,0-.37-7.07,13.73,13.73,0,0,0,4-6,1,1,0,0,0-1.66-1,26.93,26.93,0,0,1-3.51,2.85c-1.1-3.34-2.56-6.64-3.71-9.92.41-.75.8-1.51,1.13-2.28,3.53-8.18-10-9.88-10,.27a18.86,18.86,0,0,0,1.07,5.9q-3.9,4.55-7.88,9c-3.44,3.86-7.3,6.71-11,10.34C213.9,74.18,210.21,77.63,208.29,77.2Zm30.36-8.14c-.09,6-5.92,6.77-9.66.43a31.42,31.42,0,0,0,9.64-1.38C238.64,68.43,238.65,68.74,238.65,69.06Zm-3-10.84c.7,1.67,1.42,3.33,2,5a55.71,55.71,0,0,1-7.81,1.38l-.29,0C231.57,62.58,233.67,60.44,235.63,58.22Z"/></g></g></svg>