<svg xmlns="http://www.w3.org/2000/svg" viewBox="0 0 585.9 189.53"><defs><style>.cls-1{fill:#fff;}</style></defs><title>Asset 8</title><g id="Layer_2" data-name="Layer 2"><g id="Layer_1-2" data-name="Layer 1"><path class="cls-1" d="M486.65,16.92c6.23-4.25,2.63-7,1.92-8A5.47,5.47,0,0,0,486,7.42a5.12,5.12,0,0,0-3.1-.06l-.1,0a5.12,5.12,0,0,0-3.38,3.21h0a5.14,5.14,0,0,0,0,3.41C480.31,16.41,482.35,19.85,486.65,16.92Z"/><path class="cls-1" d="M574.85,37.4c-2.52.15-1.16,1.59-6.92,5.4a7.05,7.05,0,0,1-2.69,1c-1.8-3.71-5.52-4.71-4.75-8.48,1.14-5.59,5.22-3.59,5.71-6s-1.12-7-4-6.47c-6,1.14-12.65,6.47-11.7,11.74-1.38,1.93-2.9,4-4.45,6a3.85,3.85,0,0,0-5,3.26,15.71,15.71,0,0,0-.05,2.77c-2.23,2.35-4.25,3.95-5.66,4-5.58.15,9.09-32.2,8.85-40.88-.22-8.08-4.53-9.62-6.73-9.74a.64.64,0,0,0-.63.39,180.89,180.89,0,0,0-9.26,28.87c-1.17,5.18-2.34,9.68-3,13.5-3.6,5.62-8.3,13.93-11.57,9-1.71-2.56,5.2-12.27,5.11-15.88-.19-7.38-6-7.14-11.08-8.54a2.68,2.68,0,0,0,0-.67c1.66-4.82,4.31-11.25-7.67-11.38-8.16-.08-6.82,12.79-1.4,16.22a11.67,11.67,0,0,0,2.27,1.08C498,36.15,485.61,56.7,482.39,54.78c-2.56-1.53,4-15.63,4.54-18,1.25-5.49-2.19-8.38-7.26-9.33a.66.66,0,0,0-.71.36A75.54,75.54,0,0,0,474.78,38,107.46,107.46,0,0,1,463,50.27a25,25,0,0,0,0-7.16c-.54-3.17-4.29-11.78-8.78-8.64a.71.71,0,0,0-.23.28,61.37,61.37,0,0,0-3.59,10.78c-3.42,5.65-11.84,12.06-17.09,10.3-6.36-2.13-3.5-8.63-1.38-12.83a64.29,64.29,0,0,1,18.78-22.55c7.33-5.53,14-1.94,9.62,7.21-1.1,2.32,4.3,2,4.7.47,3.85-14.57-9.53-21.91-22.22-16.47-10,4.3-18.36,17.68-22.44,27.19s-4.73,26.38,10.08,23.9a33.08,33.08,0,0,0,18.33-9.83c-.67,3.26-1.34,6.51-2.18,9.7-5.69,2.95-11.83,5-17.86,7.22-6.7,2.52-12.61,6-14.06,13.64-1.33,7.05,2.52,13.08,9.62,14.38C441.52,101,454.48,80.59,458.66,67c.87-2.81,1.92-6,2.8-9.38a68.7,68.7,0,0,0,11.65-11.85,25.5,25.5,0,0,0,.18,6.82c.81,4.77,4.66,10.42,10.07,8.05,4.38-1.91,7.84-7.65,10.46-11.37,3.56-5,6.77-10.34,9.83-15.7l.06-.1a38.59,38.59,0,0,0,4.84.46c-3.15,5.74-7.92,14.36-4.7,20.31,2.44,4.5,9,5.08,13.21,3.07a17.44,17.44,0,0,0,7-6.34c.59,3.37,2.61,5.58,7,6.58,3.23.73,7.19-2.2,11.06-6.47,1.2,2.32,3.49,4.41,7.69,5.27a18.61,18.61,0,0,0,10-.38,9.18,9.18,0,0,0,6.23-8.94c5.81-1.21,8.25-4.14,8.88-5.34C576.05,39.64,577.37,37.25,574.85,37.4ZM440.58,76.84c-3,4.69-13.33,20.5-18.92,14.79-11.06-11.29,18.53-21.51,23.08-23.27A41.87,41.87,0,0,1,440.58,76.84ZM551.91,38a19.17,19.17,0,0,1,1.4,4.71c-1.36-.32-2.66-.67-3.84-1C550.32,40.41,551.14,39.17,551.91,38ZM550,50.12c-3.15-.64-3.61-2.72-3.61-3.89a.66.66,0,0,1,.84-.61c2.22.61,4.26,1,6.16,1.37C553,49.14,551.89,50.51,550,50.12Z"/><path class="cls-1" d="M310.64,32.15c3.2-.68,5.77-4.4,5.62-6.76s-3-6-8.79-5.59c0,0-2.94,1.37-2.76,4.2S307.44,32.83,310.64,32.15Z"/><path class="cls-1" d="M386.11,63.73s-1.51,4.38-8.43,6.43c0-.36.06-.71.08-1,.45-8.18,5-25.41,3.94-28.76s-7.71-5-8.25-3.77a49.9,49.9,0,0,0-1.83,5.18c-2.59-2.82-8-3.35-10.7-3.29,0,0-4.78-1.06-9.61,11.94a27.29,27.29,0,0,0-1.36,5c-1.83,2.83-5.59,8.26-7.48,8.42-2.57.21,5.57-19.94,5.66-21.38s-4.08-4-8.34-4.33c-3-.21-10.17,9.89-14.26,16,.37-3,.78-6.62,1-9.2.33-4.76-3.78-5.74-6-6a.74.74,0,0,0-.79.54c-.26.89-.79,2.73-1.43,5.06a49.51,49.51,0,0,1-8.37,17c-1.66,2.16-3.19,3.77-4,3.64-2.38-.37,4.38-12,4.27-17.88-.1-5.21-5.06-7.16-7.09-7.45a.74.74,0,0,0-.81.53c-.68,2.28-3.25,10.93-4,14.29l-.06.27a23.16,23.16,0,0,1-2.74,7A15.47,15.47,0,0,1,294,64.28c-2.63,2.85-8.11,5.92-5.36-.51,2.2-5.14,7.14-13.2,1.33-17.79-2.8-2.22-6.32-1.92-9.55-2.69.87-5.13,2.21-13.48-7.24-12.26-7,.9-4.64,13.68.49,16.86a14.91,14.91,0,0,0,1.54.83c-6.54,9.89-20.35,29.92-24.62,19.42-.5-1.23-.15-3.53.65-6,5.76,2.36,22.23-4.23,13.53-15.41-7.92-10.19-17.9,1.65-21.65,8.85-.23.45-.45.9-.65,1.35a17.48,17.48,0,0,1-5.5.35c-.21-5.2-2.15-9.8-6.33-11.58-2.15-.92-6.37-1.24-7.55,1.33-1.83,4,.54,9.68,7,12.23-.35,6.14-2.41,12.92-5.3,13.9-5.2,1.77-2.73-7.29-2.38-9.52a8.21,8.21,0,0,0-1.65-6.21c-1-1.46-4-3.5-5.68-1.85a12.27,12.27,0,0,0-3.52,11.38c-2.82,3.05-6.45,5.39-7.83,5.69a.76.76,0,0,1-.86-1c1.29-3.72,5.18-15.15,5.7-19,.62-4.64-1.62-6.74-5.36-6.94,0,0-.76-.26-2.35,1.48a65.86,65.86,0,0,1-8.44,7.6c-1.12.86-2.24,1.73-3.35,2.55-1.24-8.12-8.94-14.71-17.63-10.12a9.14,9.14,0,0,0-3,2.56,7.25,7.25,0,0,0-2.22.5,10.58,10.58,0,0,0-4.81,4.8,33.41,33.41,0,0,1-1.8,2.86l-.63.89c-.38.54-3,2.94-6.15,5.76,1.31-15.23-10.6-16.35-20-7.66.37-4.49-2.44-5.6-5.84-6.34l-.26,0-3,.08a.77.77,0,0,0-.81.94,10.5,10.5,0,0,1,0,4,33.39,33.39,0,0,1-5.42,14.32c-2.51,3.77-5.65,8-7.21,8.11-2.85.23,0-11.55,1-16.63s-7.17-6.17-10-5.94c-1.64.13-5.56,7.8-8.6,14.28l-.81-11.27S89.11,52.39,84,55.71c-2.92,1.88-8,8.54-11.8,14a39.13,39.13,0,0,0,1.07-6.95c0-3.88-5.81-4.9-8.11-5.14a.75.75,0,0,0-.82.8,2.21,2.21,0,0,1,0,.63c-1.41,5.9-2.49,7.61-5.82,11.47a111,111,0,0,1-15.83,14.8c-4.38,3-15.49,14.52-19.89,8.9-7.5-9.59,10.8-35.68,22.66-30.72C51.15,65.86,50,57.22,50,57.22c-3.52-5.44-9.8-5.55-16-3.22-2.94-5.65-1.1-12.15,4.18-15.93,2.7-1.93,12.37-5.08,15.45-1.47s-5.44,6.88-1.87,8c10.58-.92,10.34-11-.61-14.4-10.17-3.13-19.92.54-26.87,8.15-6.69,7.33-5.61,15,.84,20.65a37.45,37.45,0,0,0-3.51,3C7.86,75.34,2.18,97.2,24.71,102c12.93,2.77,28-19.74,36.22-27.36-.84,3.24-1.46,6.23-1.27,8.47.51,6.24,11.35,6,12,5.29s.23-2.75.23-2.75c-.62-7.59,4.93-15.41,9.45-20.45-1.6,5.91-.31,14.55-.06,16.12a.69.69,0,0,0,.23.41c1.28,1.1,6.77,7,9,3,1.16-2.15,4.83-9.13,8.1-15.35-.84,11.12,5.2,16.64,9.47,16.29C111,85.42,115,80,118.19,75c-3.2,11.26-6.77,23-6.63,27.12.27,7.88,4.55,9.5,6.88,9.68a.86.86,0,0,0,.86-.48,177,177,0,0,0,9.3-28.44c7.83,4.06,18-3.93,23.24-9.21,2.48-2.5,4.42-5.89,6.4-9.08-1,8.51,2.37,17.54,12.87,17.64,10.14.1,16.76-11.35,18-20.4a55.2,55.2,0,0,0,5.44-3.6c-4.5,11-1.82,19.63,6.72,20.07,5,.26,9.16-3.67,11.81-7.18a13.61,13.61,0,0,0,8.89,7c8.14,1.84,14.06-8,14.93-17.48a15.13,15.13,0,0,0,4.34-.4c-2.67,8.85.34,17.21,12.7,16.08,10.26-.94,21.9-16.16,25.32-26.28a28.6,28.6,0,0,0,4.36.62c-2.73,7.18-6.46,24.71,4.5,22.44,3.91-.81,7.42-4.08,9.91-8,.58,3.32,2.06,6.08,5.3,6.19,4.38.14,8-3.63,10.57-7.68a14.42,14.42,0,0,0-.17,2.95c.39,4.11,6,5.12,8,5.35a.74.74,0,0,0,.81-.61c.8-5.12,6.59-13.58,11.46-20-2,9.49.31,18.72,5.28,19.06,3.61.25,7.91-4.56,10.8-8.5a9.09,9.09,0,0,0,9.07,7c2.72-.06,5.92-3.8,8.56-8.39-.2,4-.55,7.49-1,10.57-13.79-.07-21.31,4.36-21.59,13.16-.29,9.16,5.64,14.42,16.09,14.75,8.92.28,14.33-15.74,16-25.54,7.92-2.14,9.71-6.37,10.15-7.6A1.64,1.64,0,0,0,386.11,63.73ZM134.5,77.55a5.66,5.66,0,0,1-4.44-.63c.91-3.6,1.8-7,2.44-10.07a14.36,14.36,0,0,1,4.16-7.53c.28-.26.56-.52.85-.76,3.32-2.75,9.78-6.85,7.83.84C143.94,64.94,140,75.64,134.5,77.55Zm50-21.91a10.11,10.11,0,0,1,0,4.62c-2.75,1.45-5.43,2.11-8,1.08a5.48,5.48,0,0,1-3.13-2.55c1-2,1.72-3.49,1.68-4a5.71,5.71,0,0,0-.18-1C177.63,51.22,182.8,50.29,184.49,55.65ZM173.92,76.47c-8.31,1.56-6.16-5.76-3.16-12.34A9,9,0,0,0,176.07,66a20,20,0,0,0,7.16-1.36C181.21,70.13,177.47,75.8,173.92,76.47ZM227.29,50.6a.75.75,0,0,1,1.35-.36,10.87,10.87,0,0,1,1.42,5.09C228.24,54.23,227.08,52.67,227.29,50.6Zm30.12,1.68c2.5-1.05,3.49-.61,2.71,2.78-.87,3.76-4.48,3.86-7.77,4.2C253.8,56,255.79,53,257.42,52.29Zm102.94,10.8c-3.61.09-1.48-9.14,1-13.1s4.9-4.8,4.9-4.8A4.56,4.56,0,0,1,370,47.85c-.22.92-.44,1.82-.63,2.69C367.54,53.33,363.69,63,360.35,63.09Zm-5.41,29.73a5.85,5.85,0,0,1-6-4.09c-.16-1-4.3-14.58,15.09-14,.69,0,1.36,0,2,0C363,90.11,357,92.82,354.94,92.82Z"/><path class="cls-1" d="M508.93,104.35c1.54.64,4.35,0,5.22-1.5,1.56-2.64-.42-4.13-2.71-4.56a3.52,3.52,0,0,0-4.14,4.14A2.64,2.64,0,0,0,508.93,104.35Z"/><path class="cls-1" d="M541.47,103.39c4.39-.81,1.78-7-1.9-5.84C535,99,536.93,104.24,541.47,103.39Z"/><path class="cls-1" d="M584.8,114.3c-1.86.17-.82,1.21-5,4.17a6,6,0,0,1-2.76.91c-1.08-2.8-3.42-3.44-2.94-6.28.7-4.16,3.77-2.79,4.07-4.57s-1-5.16-3.12-4.69c-4.5,1-8.34,5.27-7.07,9.21-.52.56-2.16,2.32-4.21,4.4h0a2.85,2.85,0,0,0-3.84,2.43,11.92,11.92,0,0,0,0,1.39c-3.11,3-6.16,5.49-7.21,5.26-1.45-.31-1.7-3.34-1.51-6.28,7.94.24,8.59-5.79,8.62-9.63,0-2.32-2.76-3.17-5.12-3.47a7.39,7.39,0,0,0-6.09,2.05c-4.76,4.66-5.38,11.1-5.37,13.21-1.72,2.5-4,5.31-5.66,5.39-3,.15,2.56-10.51,2.25-14-.24-2.74-4.27-3.79-5.46-4.16a.54.54,0,0,0-.68.36,23.41,23.41,0,0,1-1.45,6.26,16.66,16.66,0,0,0-.57,1.77,19.4,19.4,0,0,1-3.23,6.83c-1.26,1.66-2.54,2.83-3.62,2.86-2.42.05.85-9.89,3.44-18.67,2.53-.29,5-.53,5.84-.59,1.56-.11,2-.88,1.21-2-.54-.73-2.86-.77-6.19-.45,1-3.61,1.75-6.76,1.71-8.55-.13-5.86-2.9-7.09-4.4-7.24a.53.53,0,0,0-.54.34A143.23,143.23,0,0,0,520.72,107a25.13,25.13,0,0,1-6.16,0s1,2.85,2.32,3.17a8.46,8.46,0,0,0,3.09,0q-.18.79-.35,1.6v0a25.14,25.14,0,0,1-2.26,6.36c-2.25,4.39-6.28,11.92-7.37,12-1.55.17,2.38-12.84,2.12-15.22-.23-2.15-4.07-3.4-5.47-3.54a.53.53,0,0,0-.54.32,48.75,48.75,0,0,0-2,7.53,22.41,22.41,0,0,1-4.15,8.74c-.89,1.14-1.75,2-2.35,2.09-1.89.27,2.81-14,2.81-15s-3.2-2.79-6.36-2.82c-2,0-5.93,5.62-8.62,9.85a44.49,44.49,0,0,0,.82-6.68c0-3.6-4.31-3.33-6.08-3.27a.52.52,0,0,0-.49.39c-.22.82-.77,2.89-1.39,5.41a29.86,29.86,0,0,1-5,10.72c-1.14,1.54-2.28,2.76-3.12,2.91-2.45.44,2.47-8.28,2.53-12.6,0-3.58-3.65-5.4-4.92-5.74s-3.63,6.79-3.93,8a35.29,35.29,0,0,1-4,9.74c-1.13,1.83-2.19,3.11-3,3.17-2.8.19,2.05-11.07,1.52-14.67-.43-2.88-3.69-3.91-5-4.21a.55.55,0,0,0-.65.39c-.57,2-1.81,6.22-1.81,6.22a30,30,0,0,0-1.06,3.48,19,19,0,0,1-3.65,7.54c-.85,1.06-1.62,1.79-2.17,1.84-2.13.2.74-9.21,1.54-12.79s-6.31-4.5-8.44-4.3c-1.18.11-3.9,4.74-6.12,8.88l-.38-5.73a.55.55,0,0,0-.07-.28c-.4-.7-2.44-3.83-5.87-1.69-2.32,1.45-6.33,6.68-9.51,10.57a34.4,34.4,0,0,0,1-6.28c0-2.76-4.82-3.73-6.51-3.86a.55.55,0,0,0-.6.55,15.64,15.64,0,0,1-.24,3c-.61,3.74-1.73,8.18-3.83,11.33-1.41,2.1-2.86,3.91-3.73,4-2.13.2.74-9.21,1.54-12.79s-6.31-4.5-8.44-4.3c-1.16.11-3.88,5.17-6.12,9.79l-.12-6.89s-2.09-4.22-5.95-1.82c-2.32,1.45-6.58,6.79-9.76,10.68a34.63,34.63,0,0,0,1.16-6.56c0-2.78-4.86-3.43-6.62-3.57a.54.54,0,0,0-.59.56q0,.29,0,.6a6,6,0,0,1-2.49,4.67l-.72.52c-.56.4-1.15.8-1.76,1.19a8.56,8.56,0,0,0-12.33-6.67,4.69,4.69,0,0,0-1.8,1.86,8.11,8.11,0,0,0-3.81,1.31l-.31.32a12.11,12.11,0,0,0-1.76,2.5c-3,3.17-5.86,8-8.06,10.44-2.66,2.92-9.41,9-13.5,5.69-8-6.51,7.56-38.2,14.15-21.88a1.22,1.22,0,0,0,2.32-.15c.64-2.34.61-5.75-2.83-9.11-6-5.82-15.3,1.32-19.7,8.09-7.74,11.9-8.27,28.61,8.8,28.4,7.37-.09,12.66-7,16.93-12.85,0,.19,0,.37,0,.57a15.46,15.46,0,0,0,.14,2.45c.89,6,9.08,8.43,14,5.35,4-2.54,6.88-7.85,7.64-12.82a28,28,0,0,0,4-2.73h0c-1,4.05-2.15,8.16-1.91,10.66.41,4.38,8.54,4.07,9.05,3.57s.16-1.94.16-1.94c-.49-5.26,3.36-10.24,6.57-13.43a42.22,42.22,0,0,0-.16,10.78.51.51,0,0,0,.18.34c.93.8,5.76,4.77,6.72,1.94.82-2.42,4.81-9.78,8-14.72-2.48,10.08,2.25,14.9,5.88,14.56,1.86-.17,4.34-3,6.48-6.07a8.66,8.66,0,0,0,0,1.62c.41,4.38,8.53,4.07,9.05,3.57s.16-1.94.16-1.94c-.49-5.18,3.24-9.9,6.43-12.94a38.58,38.58,0,0,0-.15,9.38.52.52,0,0,0,.19.35c1,.82,6.11,4.92,7,2.07.65-2,4.82-9.59,7.82-14.11-2.56,10.18,2.2,15.05,5.84,14.71,2-.19,4.81-3.59,7.07-6.92.86,4.53,4.09,6.48,7,6.05,2-.3,4.6-3.56,6.81-7.06.76,3.44,2.64,5.34,4.73,5.32,3.06,0,5.9-3.77,7.93-7.36a12.17,12.17,0,0,0-.11,3c.48,3,4.91,3.52,6.47,3.59a.54.54,0,0,0,.57-.49c.39-3.95,4.92-9.94,8.51-14.13-1.79,7.35.09,13.3,4.12,13.33,2.84,0,6-4.19,7.94-7.31.26,3.28,1.33,6.79,4.85,6.41,3.14-.34,6.4-4.86,8.89-9.32-.4,4.48.57,7.31,4.75,8.39,3.18.82,6.47-3.28,9-7.76.33,3.8,1.9,6.92,5.34,6.62,3-.26,5.6-3,7.54-5.71.86,2.3,2.94,5,8.23,4.87,3,0,6.22-2.3,9.12-5.16a7.82,7.82,0,0,0,5.56,3.27,14.22,14.22,0,0,0,5.38,0,6.9,6.9,0,0,0,5.4-7.07v0c5-.92,7-3.42,7.42-4.39C585.75,115.92,586.66,114.12,584.8,114.3Zm-32.85,1c.77-2.66,6-5.7,4.69-1.29-.88,3-3.54,3.43-5.13,3.4A18.51,18.51,0,0,1,551.95,115.31ZM355.46,138.75c-1.31,2.38-5.64,8.1-8,3.62a8,8,0,0,1,.25-7c1.59,1.24,4,1.43,6.22,1.05a19.49,19.49,0,0,0,2.93-.75A28.53,28.53,0,0,1,355.46,138.75Zm2.49-6.56a23.46,23.46,0,0,1-2.41,1c-1.87.67-4.51.25-5.29-1.61h0a3.79,3.79,0,0,0,1.19-3.76,5.44,5.44,0,0,1,4.27-1C358.09,127.47,358.42,129.74,358,132.19Zm208.76-7.86a3,3,0,0,1-2.57-1.79c.37-.44.73-.88,1.08-1.31,1.58.35,3,.6,4.4.77C569.13,123.56,568.13,124.57,566.72,124.33Zm.65-5.94c.73-1,1.37-2,1.88-2.74a10.59,10.59,0,0,1,.72,3.27C569.07,118.76,568.19,118.58,567.37,118.39Z"/><path class="cls-1" d="M246.15,128.09a5.23,5.23,0,0,0,3.76-4.63c-.12-1.6-2.07-4-6-3.72a3.24,3.24,0,0,0-1.83,2.88C242.21,124.53,244,128.57,246.15,128.09Z"/><path class="cls-1" d="M300.45,151.54a10.12,10.12,0,0,1-5.45,3.62c0-.26,0-.52,0-.75.25-6,3.4-18.54,2.61-21s-5.66-3.59-6-2.67a36.26,36.26,0,0,0-1.29,3.78c-1.91-2-5.84-2.37-7.81-2.3,0,0-3.49-.73-6.89,8.77a18.52,18.52,0,0,0-1.08,4.69c-1.41,2.14-3.52,5-4.69,5.13-1.87.17,3.87-14.56,3.93-15.61s-3-2.9-6.11-3.07c-2.07-.12-6.89,6.67-9.85,11.2.3-1.82.58-3.85.67-5.46.2-3.46-3.15-4.68-4.81-4.94a.52.52,0,0,0-.59.37c-.32,1.17-1.26,4.58-2.16,8.3a27.18,27.18,0,0,1-4.72,10.07c-1,1.37-2,2.33-2.49,2.24-1.73-.3,3.24-9.36,3.23-13.66,0-3.79-3.59-5.27-5.07-5.51a.54.54,0,0,0-.6.38c-.25.79-1,3.25-1.66,5.63a28.6,28.6,0,0,1-6.39,11.44c-.94,1-1.75,1.72-2.22,1.77-1.87.17,3.87-14.56,3.93-15.61s-3-2.9-6.11-3.07c-2.16-.12-7.31,7.29-10.23,11.78.24-2.19.51-4.82.61-6.71.2-3.46-2.79-4.14-4.38-4.3a.55.55,0,0,0-.58.4c-.21.76-.67,2.45-1.22,4.55a22.35,22.35,0,0,1-3.22,7.06c-4.58,6.66-10.6,12.45-12.87,7-.35-.84-.13-2.4.39-4.1,3.94,1.56,15.12-3.07,9.1-10.61-5.48-6.88-12.19,1.27-14.69,6.22A17,17,0,0,0,190,152c-2.1,2.43-4.59,4.93-5.78,4.86-2.34-.12,5.24-16.56.52-16.94-6.75-.54-11.58,6.22-14.2,10.86.82-3.37,1.94-7.81,3.15-12.1,1.53-5.42,3.9-10.69,3.75-13-.3-4.75-2.77-6.63-3.84-7.23a.55.55,0,0,0-.75.2c-2.08,3.63-4.58,10.22-6.72,17.2a24.81,24.81,0,0,0-6.41.24,28.63,28.63,0,0,0,1.19-6.65c-.13-5.84-2.88-7.08-4.39-7.24a.54.54,0,0,0-.56.35A142.75,142.75,0,0,0,151.1,138c-3,.52-6.16.39-8.85-1.43a1.11,1.11,0,0,0-1.74,1c.07,2.47.53,4.44,2.22,5.15,2,.85,4.83.32,7.32-.22q-.14.63-.27,1.27-.25,1.21-.5,2.35a19.19,19.19,0,0,1-7.42,11.44l-.07.05c.9-3.81,2.21-8.61,1.22-11.65-.8-2.47-5.75-3.66-6.15-2.72a37,37,0,0,0-1.31,3.85c-1.94-2.06-5.95-2.41-8-2.34,0,0-3.55-.74-7,8.92a21.15,21.15,0,0,0-.75,2.58c-1.15,1.93-4.13,6.75-5.63,7-1.88.32,2.43-13.49,2.4-14.56s-3.28-2.7-6.44-2.63c-2.18,0-6.59,7.07-9.1,11.41.07-2.29.14-5.1.1-7.08-.08-3.57-3.23-4-4.84-4a.51.51,0,0,0-.5.4c-.25,1.08-1,4.24-1.65,7.74a12.5,12.5,0,0,1-2.11,4.9c-4.48,6.24-10,11.24-12.2,6.09-.35-.84-.13-2.4.39-4.1,3.94,1.56,15.12-3.07,9.1-10.61-5.48-6.88-12.19,1.27-14.69,6.22a18.42,18.42,0,0,0-1.28,3.25c-2.58,2.64-5.85,5.83-6.55,5.77-1.2-.09,3.46-8.13,5-10.95s.43-3.93-2.44-4.94c-2.08-.73-5.18.41-7.47,1,.93-2.39,3.33-6.29-1-6.7-5.16-.82-7.69,4.78-5.14,8.82a3.43,3.43,0,0,0,1.14,1.08C53.75,160,47.67,169.79,45,169.85s2.61-15.33,5.5-25.87l9.67-1.11a.54.54,0,0,0,.49-.55c0-1.24,0-3-1.62-3.11-.69,0-3.77.09-7.41.26a18.33,18.33,0,0,0,.53-3.86c-.14-6.43-3.46-7.29-4.8-7.26,0,0-1.83,5-3.84,11.54-3.4.2-6.1.39-6.42.49-.67.21-1.41,3.19-1.73,4.6a.54.54,0,0,0,.61.65l6.07-.69v0a11.19,11.19,0,0,1-4.05,6,49.5,49.5,0,0,1-8.78,5.32c-2.73-5.18-7.3-9.94-7.06-16,.11-2.86,5.24-9.85,8.87-8.52,5.68,2.08-.9,4.4-1.07,6.53-.34,4.32,3.61,2.75,5.24-.24,2.18-4,.07-7.69-3.82-9.14-7.63-2.86-17,4.67-17.57,12.37s7.27,11.67,8.69,17.63c-2,.67-4,1.31-6,2-4.88,1.77-24,7.38-13.29,14.13,7.13,4.51,21.14,2.62,25.76-4.78,2.66-4.26,2.66-7.84,1.53-11.14A40.52,40.52,0,0,0,40,153.22l-.16.77c-2.5,12-4.93,19.13,2.35,21,5.15,1.33,13.47-13.28,16.92-19.84a20.89,20.89,0,0,0,4.13.22c-3.95,8.69-4.21,15.76-.06,16.78,2.4.59,6.47-3.58,9.68-7.5.29,4.07,3.06,7.05,9.33,6.4,3.59-.37,7.39-3.31,10.54-7a9.73,9.73,0,0,0,0,2.17c.56,3,4.76,3.37,6.28,3.41a.54.54,0,0,0,.56-.5c.27-3.81,4.38-9.56,7.81-13.75-1,6.86.35,13.1,4.88,13,2.68-.08,5.54-3.93,7.41-7a6.79,6.79,0,0,0,7.18,5.2c2-.07,4.21-2.62,6-5.79q-.17,1.78-.28,3.57v0c-11.25,8.53-21.65,18.2-11.65,23.58,10.85,5.84,16.11-4.94,18.21-13.52,1-4,1.2-8.1,1.72-12.17,2.65-2.1,5.11-4.08,6.38-5.1-.23,4.07.85,6.65,4.8,7.67,3,.77,6.47-3.32,9.41-8.06-.23,2.78-.05,4.78.68,5.49,2.95,2.88,6.45,1.07,7.4.48a.56.56,0,0,0,.26-.44c.26-3.92,5.27-10.81,9-15-2.16,5.77-3.46,15.3,1,15.24,4,0,7.65-3.34,10.33-6.57.85,3.21,3.66,5.36,9.07,4.8,3.79-.39,7.82-3.65,11.07-7.66a14.55,14.55,0,0,0-.25,3.24c.32,3,4.39,3.67,5.88,3.82a.54.54,0,0,0,.59-.46c.58-3.92,5.19-10.88,8.9-15.95-1.81,7.33-.51,14.93,3.28,15.15,3.17.18,7-5,8.94-8,0,3.28.9,6.66,4,6.8s5.4-2.11,7.28-4.74c0,.07,0,.14,0,.2.32,3,4.39,3.67,5.88,3.82a.54.54,0,0,0,.6-.46c.54-3.73,4.67-9.94,8.16-14.63-1.34,6.93.39,13.62,4,13.82,2.47.14,5.34-3,7.4-5.75a6.59,6.59,0,0,0,6.5,4.52c2-.07,4.27-2.82,6.15-6.18-.11,2.91-.33,5.46-.64,7.7-10,.07-15.47,3.36-15.59,9.77-.13,6.67,4.23,10.45,11.84,10.59,6.49.12,10.29-11.58,11.42-18.73,5.74-1.63,7-4.72,7.32-5.62a.5.5,0,0,0-.13-.63A1,1,0,0,0,300.45,151.54ZM20.63,166.7c-2.14,3.24-8.09,9-12.5,6.68s-.6-4.51,2.39-6.05a112.22,112.22,0,0,1,12-5A12.39,12.39,0,0,1,20.63,166.7Zm63.76-12.07c1.7-.74,2.37-.44,1.87,1.87-.56,2.57-3,2.67-5.26,2.93C82,157.17,83.29,155.1,84.39,154.62Zm43,8.31c-2.67.1-1.18-6.75.59-9.7a14.33,14.33,0,0,1,3.8-4.31,3.38,3.38,0,0,1,2.78,1.84l-.09.35c-.15.62-.28,1.25-.41,1.87C132.71,155.35,129.83,162.85,127.41,162.94ZM123.67,185c-11.69.14,6-14.56,7.25-15.27.28-.15.72-.44,1.26-.83C130.29,182.6,125.31,185,123.67,185Zm31.28-25.39c-2.49.06,1-10.46,3.65-19.41a21.59,21.59,0,0,1,4.76-1.17,7.88,7.88,0,0,1,1.85,0c-.76,2.68-1.45,5.36-2,7.89a24.16,24.16,0,0,1-4.79,10C157.1,158.52,155.89,159.58,154.95,159.6Zm46.54-15.34c1.7-.74,2.37-.44,1.87,1.87-.56,2.57-3,2.67-5.26,2.93C199,146.81,200.38,144.74,201.48,144.26Zm80.85,5.9c-2.63.09-1.16-6.63.58-9.54s3.52-3.54,3.52-3.54a3.32,3.32,0,0,1,2.76,1.9c-.16.67-.3,1.33-.43,2C287.47,143,284.76,150.08,282.33,150.16Zm-3.67,21.68a4.26,4.26,0,0,1-4.37-2.92c-.12-.71-3.26-10.57,10.86-10.3h1.46C284.51,169.8,280.16,171.82,278.65,171.84Z"/></g></g></svg>